<svg xmlns="http://www.w3.org/2000/svg" viewBox="0 0 32 32"><rect width="20" height="28" x="6" y="2" fill="#ffd599" rx="2" ry="2"/><path fill="#6d6daa" d="M24,31H8a3,3,0,0,1-3-3V4A3,3,0,0,1,8,1H24a3,3,0,0,1,3,3V28A3,3,0,0,1,24,31ZM8,3A1,1,0,0,0,7,4V28a1,1,0,0,0,1,1H24a1,1,0,0,0,1-1V4a1,1,0,0,0-1-1Z"/><path fill="#6d6daa" d="M26 7H20a1 1 0 0 1 0-2h6a1 1 0 0 1 0 2zM26 11H22a1 1 0 0 1 0-2h4a1 1 0 0 1 0 2zM26 15H20a1 1 0 0 1 0-2h6a1 1 0 0 1 0 2zM26 19H22a1 1 0 0 1 0-2h4a1 1 0 0 1 0 2zM26 23H20a1 1 0 0 1 0-2h6a1 1 0 0 1 0 2zM26 27H22a1 1 0 0 1 0-2h4a1 1 0 0 1 0 2z"/></svg>